HIERARCHY
ROOT SpineBase
{
  OFFSET 0.000000 0.000000 0.000000
  CHANNELS 6 Xposition Yposition Zposition Zrotation Xrotation Yrotation
  JOINT SpineMid
  {
    OFFSET 0.000000 30.943224 0.000000
    CHANNELS 3 Zrotation Xrotation Yrotation
    JOINT SpineShoulder
    {
      OFFSET 0.064657 22.907327 -0.789494
      CHANNELS 3 Zrotation Xrotation Yrotation
      JOINT Neck
      {
        OFFSET 0.041778 7.549463 -0.595876
        CHANNELS 3 Zrotation Xrotation Yrotation
        JOINT Head
        {
          OFFSET 7.520483 10.291068 1.519198
          CHANNELS 3 Zrotation Xrotation Yrotation
          End Site
          {
            OFFSET 0 0 0
          }
        }
      }
      JOINT ShoulderLeft
      {
        OFFSET -11.358574 -2.248637 -10.816787
        CHANNELS 3 Zrotation Xrotation Yrotation
        JOINT ElbowLeft
        {
          OFFSET -7.486696 -21.087745 -7.187755
          CHANNELS 3 Zrotation Xrotation Yrotation
          JOINT WristLeft
          {
            OFFSET 19.843092 -2.722977 -18.471116
            CHANNELS 3 Zrotation Xrotation Yrotation
            JOINT HandLeft
            {
              OFFSET 7.280182 -1.249655 -5.218740
              CHANNELS 3 Zrotation Xrotation Yrotation
              JOINT HandTipLeft
              {
                OFFSET 5.191987 -2.408616 -2.859904
                CHANNELS 3 Zrotation Xrotation Yrotation
                End Site
                {
                  OFFSET 0 0 0
                }
              }
              JOINT ThumbLeft
              {
                OFFSET 1.376356 3.142785 -1.733599
                CHANNELS 3 Zrotation Xrotation Yrotation
                End Site
                {
                  OFFSET 0 0 0
                }
              }
            }
          }
        }
      }
      JOINT ShoulderRight
      {
        OFFSET -2.426248 3.442035 -18.083554
        CHANNELS 3 Zrotation Xrotation Yrotation
        JOINT ElbowRight
        {
          OFFSET 9.953029 -14.024806 18.144441
          CHANNELS 3 Zrotation Xrotation Yrotation
          JOINT WristRight
          {
            OFFSET 19.942377 -17.450558 0.300337
            CHANNELS 3 Zrotation Xrotation Yrotation
            JOINT HandRight
            {
              OFFSET 3.695174 -5.927635 -3.484159
              CHANNELS 3 Zrotation Xrotation Yrotation
              JOINT HandTipRight
              {
                OFFSET 0.091100 -1.417387 -0.433835
                CHANNELS 3 Zrotation Xrotation Yrotation
                End Site
                {
                  OFFSET 0 0 0
                }
              }
              JOINT ThumbRight
              {
                OFFSET 0.014869 -1.652539 -1.189417
                CHANNELS 3 Zrotation Xrotation Yrotation
                End Site
                {
                  OFFSET 0 0 0
                }
              }
            }
          }
        }
      }
    }
  }
  JOINT HipLeft
  {
    OFFSET -4.410033 0.494304 -9.103894
    CHANNELS 3 Zrotation Xrotation Yrotation
    JOINT KneeLeft
    {
      OFFSET -5.843616 -36.777956 -1.907835
      CHANNELS 3 Zrotation Xrotation Yrotation
      JOINT AnkleLeft
      {
        OFFSET -7.213580 -37.995939 7.324199
        CHANNELS 3 Zrotation Xrotation Yrotation
        JOINT FootLeft
        {
          OFFSET -0.674216 -7.415511 -6.647613
          CHANNELS 3 Zrotation Xrotation Yrotation
          End Site
          {
            OFFSET 0 0 0
          }
        }
      }
    }
  }
  JOINT HipRight
  {
    OFFSET 5.255002 0.585085 1.816152
    CHANNELS 3 Zrotation Xrotation Yrotation
    JOINT KneeRight
    {
      OFFSET 0.680406 -39.487595 4.170965
      CHANNELS 3 Zrotation Xrotation Yrotation
      JOINT AnkleRight
      {
        OFFSET -4.704151 -34.934604 11.738220
        CHANNELS 3 Zrotation Xrotation Yrotation
        JOINT FootRight
        {
          OFFSET 2.834006 -7.522775 -5.584037
          CHANNELS 3 Zrotation Xrotation Yrotation
          End Site
          {
            OFFSET 0 0 0
          }
        }
      }
    }
  }
}
MOTION
Frames: 16
Frame Time: 0.033333
-42.196838 83.698793 361.292784 -3.872010 -1.136729 -46.387347 0.329128 -0.153908 46.211339 0.000658 -0.230101 -0.168972 2.624709 4.304789 -1.414642 0.000000 0.000000 0.000000 4.125928 11.069797 -3.184489 15.383067 1.453743 -10.052499 7.192722 6.591510 7.138048 14.998938 -10.732060 -12.804929 0.000000 0.000000 0.000000 0.000000 0.000000 0.000000 16.521439 -15.280216 4.864747 -72.409463 41.762386 103.488816 16.921772 -18.429992 -23.131701 5.621277 -16.827280 -27.089580 0.000000 0.000000 0.000000 0.000000 0.000000 0.000000 3.934310 1.303627 46.703186 3.388560 2.045434 0.153814 3.706781 2.069927 -7.168601 0.000000 0.000000 0.000000 0.359105 4.157534 46.352138 4.371057 -3.134231 1.682857 -4.125599 -9.610433 -5.994686 0.000000 0.000000 0.000000
-42.161268 83.763029 361.258390 -3.810724 -1.201758 -46.546626 0.460008 -0.178602 46.370053 -0.011104 -0.212082 -0.162619 2.182618 4.860648 -1.639841 0.000000 0.000000 0.000000 4.223253 11.130186 -3.263403 15.683699 2.049258 -9.880689 6.313383 7.536353 10.486623 15.859249 -9.654901 -12.670775 0.000000 0.000000 0.000000 0.000000 0.000000 0.000000 16.466993 -15.160568 4.886618 -72.484504 41.735285 103.348812 18.069086 -20.017832 -23.324037 5.212371 -17.817829 -26.362979 0.000000 0.000000 0.000000 0.000000 0.000000 0.000000 3.882493 1.240068 46.877287 3.408900 2.116196 0.135229 3.679222 2.040221 -7.134715 0.000000 0.000000 0.000000 0.280687 4.151125 46.512142 4.314340 -3.083377 1.658161 -3.495810 -8.796386 -5.994574 0.000000 0.000000 0.000000
-42.127069 83.837043 361.225255 -3.773082 -1.240326 -46.637669 0.507330 -0.208119 46.460514 -0.063517 -0.164411 -0.162299 2.108344 5.120178 -1.774431 0.000000 0.000000 0.000000 4.494864 11.056820 -3.344874 15.797825 2.720889 -9.248464 5.656298 8.870247 13.955146 15.831998 -10.314339 -13.794050 0.000000 0.000000 0.000000 0.000000 0.000000 0.000000 16.520623 -15.169957 4.904552 -72.496764 41.716971 103.165131 18.408090 -20.055804 -23.091204 4.762419 -18.789327 -26.491244 0.000000 0.000000 0.000000 0.000000 0.000000 0.000000 3.891961 1.188601 46.980923 3.399006 2.181161 0.120206 3.609251 1.888094 -7.052163 0.000000 0.000000 0.000000 0.230949 4.143436 46.603414 4.242481 -3.048184 1.627339 -2.786364 -7.461971 -5.807292 0.000000 0.000000 0.000000
-42.101031 83.912763 361.188252 -3.758767 -1.244519 -46.663824 0.482031 -0.238719 46.486310 -0.136488 -0.100180 -0.166448 2.352153 5.082001 -1.812151 0.000000 0.000000 0.000000 4.762025 10.941443 -3.391819 15.859314 3.341912 -8.273248 6.385991 7.520567 10.626854 15.065516 -8.629652 -11.263051 0.000000 0.000000 0.000000 0.000000 0.000000 0.000000 16.731412 -15.260964 5.023245 -72.536362 41.731403 102.920116 18.983314 -20.755568 -23.096902 3.912324 -18.480216 -26.268481 0.000000 0.000000 0.000000 0.000000 0.000000 0.000000 3.953161 1.153403 47.015647 3.354033 2.243502 0.106702 3.639753 1.721257 -7.050168 0.000000 0.000000 0.000000 0.241261 4.134516 46.629640 4.165256 -3.015110 1.599233 -2.585592 -6.269491 -5.353724 0.000000 0.000000 0.000000
-42.080817 83.978422 361.153672 -3.788874 -1.203804 -46.619191 0.356002 -0.265022 46.440978 -0.231951 -0.017607 -0.176891 3.068900 4.612750 -1.702101 0.000000 0.000000 0.000000 5.081976 10.819172 -3.432375 15.749306 3.649733 -7.195260 7.859199 5.137017 4.217101 13.980528 -7.642525 -8.529710 0.000000 0.000000 0.000000 0.000000 0.000000 0.000000 17.143479 -15.452472 5.265876 -72.616274 41.775469 102.635196 20.593630 -21.590269 -22.531954 2.525043 -18.201433 -26.065705 0.000000 0.000000 0.000000 0.000000 0.000000 0.000000 4.084499 1.138372 46.974996 3.278134 2.263641 0.102866 3.753418 1.451934 -7.111266 0.000000 0.000000 0.000000 0.317433 4.123426 46.583625 4.069921 -3.021667 1.569721 -2.607778 -6.624697 -5.416824 0.000000 0.000000 0.000000
-42.054575 84.036986 361.122599 -3.849148 -1.145730 -46.592391 0.157080 -0.280871 46.413084 -0.317367 0.057414 -0.190418 3.946440 3.875896 -1.454390 0.000000 0.000000 0.000000 5.318263 10.736000 -3.435983 15.767951 3.678289 -6.533430 8.128896 4.668271 3.033667 14.560103 -7.242048 -8.282861 0.000000 0.000000 0.000000 0.000000 0.000000 0.000000 17.664148 -15.686687 5.587323 -72.794921 41.817618 102.447804 22.758803 -22.470031 -21.649468 -0.705307 -17.276689 -26.348388 0.000000 0.000000 0.000000 0.000000 0.000000 0.000000 4.227475 1.138088 46.949397 3.213429 2.224971 0.110852 3.725974 1.536158 -7.079657 0.000000 0.000000 0.000000 0.414126 4.126053 46.555302 3.976416 -3.076591 1.546049 -2.515783 -6.922335 -5.553752 0.000000 0.000000 0.000000
-42.031610 84.081714 361.095794 -3.877443 -1.129630 -46.577841 0.096103 -0.271278 46.398243 -0.299626 0.050381 -0.192624 4.227495 3.645060 -1.371508 0.000000 0.000000 0.000000 5.471110 10.888563 -3.551180 15.534108 3.738687 -5.443828 8.111375 2.362154 -0.978862 16.154325 -5.402567 -7.157565 0.000000 0.000000 0.000000 0.000000 0.000000 0.000000 17.901316 -15.713060 5.826968 -73.012180 41.859860 102.395923 24.989446 -23.495953 -20.814004 0.212096 -17.428352 -25.379809 0.000000 0.000000 0.000000 0.000000 0.000000 0.000000 4.304871 1.139103 46.936637 3.177498 2.190901 0.119114 3.645300 1.496528 -7.003637 0.000000 0.000000 0.000000 0.452609 4.134785 46.539970 3.919136 -3.147104 1.537244 -1.932719 -7.108612 -6.033621 0.000000 0.000000 0.000000
-42.010949 84.105309 361.077561 -3.907732 -1.125043 -46.587379 0.040516 -0.262352 46.407042 -0.271492 0.033234 -0.194313 4.509735 3.445833 -1.295771 0.000000 0.000000 0.000000 5.390724 11.066258 -3.569491 15.352518 3.369628 -5.092630 8.108589 1.313437 -3.089300 17.531806 -4.691128 -7.260842 0.000000 0.000000 0.000000 0.000000 0.000000 0.000000 18.160245 -15.676893 6.117061 -73.336693 41.868583 102.422822 27.335835 -24.500711 -19.868823 6.527933 -18.786225 -22.808378 0.000000 0.000000 0.000000 0.000000 0.000000 0.000000 4.354109 1.151744 46.946260 3.154003 2.178118 0.121367 3.590546 1.359482 -6.934879 0.000000 0.000000 0.000000 0.464754 4.160740 46.549580 3.909769 -3.247507 1.547469 -1.491076 -7.202420 -6.423220 0.000000 0.000000 0.000000
-42.002074 84.107716 361.063645 -3.949141 -1.117727 -46.584912 0.006864 -0.260097 46.403098 -0.254238 0.026809 -0.196316 4.797002 3.274454 -1.232180 0.000000 0.000000 0.000000 5.197339 11.295275 -3.546627 15.156611 2.660461 -5.178263 8.169514 1.093818 -3.922728 18.742686 -3.765977 -7.255577 0.000000 0.000000 0.000000 0.000000 0.000000 0.000000 18.433011 -15.610392 6.420502 -73.723296 41.826989 102.506348 30.212679 -25.602650 -18.619884 9.274050 -17.768046 -21.246953 0.000000 0.000000 0.000000 0.000000 0.000000 0.000000 4.392523 1.180322 46.940606 3.130112 2.180231 0.118841 3.560929 1.085329 -6.863290 0.000000 0.000000 0.000000 0.500517 4.198035 46.547308 3.898507 -3.327791 1.557775 -1.402106 -7.352177 -6.591512 0.000000 0.000000 0.000000
-42.007006 84.073980 361.058572 -3.984090 -1.125894 -46.612923 0.004360 -0.255242 46.429462 -0.225617 0.007204 -0.196487 4.915286 3.217639 -1.196680 0.000000 0.000000 0.000000 4.953650 11.560106 -3.519546 15.254700 1.851770 -6.288895 8.045798 1.713625 -2.797301 18.451439 -4.109586 -7.454471 0.000000 0.000000 0.000000 0.000000 0.000000 0.000000 18.628574 -15.488097 6.677150 -74.118401 41.748628 102.656028 31.357743 -25.720257 -17.917845 10.340971 -16.599302 -20.959999 0.000000 0.000000 0.000000 0.000000 0.000000 0.000000 4.413118 1.224641 46.963682 3.093728 2.189487 0.113968 3.547459 0.675572 -6.783320 0.000000 0.000000 0.000000 0.516007 4.249240 46.576453 3.911195 -3.370875 1.571507 -1.428825 -7.724236 -6.780795 0.000000 0.000000 0.000000
-42.000514 84.067479 361.046104 -4.012397 -1.127854 -46.562112 0.016748 -0.255239 46.377240 -0.206768 -0.012621 -0.196683 4.965334 3.202668 -1.174024 0.000000 0.000000 0.000000 4.770311 11.815084 -3.514783 15.678637 1.664573 -6.751975 6.970880 0.455575 -3.397928 18.279175 -3.714767 -7.228407 0.000000 0.000000 0.000000 0.000000 0.000000 0.000000 18.780625 -15.360467 6.886927 -74.469214 41.660028 102.817559 32.719263 -26.762014 -17.531863 6.602872 -14.042230 -21.702904 0.000000 0.000000 0.000000 0.000000 0.000000 0.000000 4.407217 1.266721 46.905757 3.092676 2.160270 0.120225 3.473655 0.316528 -6.681894 0.000000 0.000000 0.000000 0.532114 4.264855 46.524210 3.945259 -3.361424 1.580753 -1.355789 -7.827091 -6.899653 0.000000 0.000000 0.000000
-41.996188 84.066140 361.032941 -4.045531 -1.127453 -46.546675 0.010968 -0.261337 46.360072 -0.198631 -0.022302 -0.198304 5.082027 3.163998 -1.152768 0.000000 0.000000 0.000000 4.627736 11.960452 -3.479880 15.888275 1.242875 -7.604729 6.521708 0.734567 -2.128731 17.418447 -4.436356 -7.515377 0.000000 0.000000 0.000000 0.000000 0.000000 0.000000 18.901795 -15.270430 7.024140 -74.724568 41.565896 102.971458 33.440031 -27.808514 -17.537175 6.011301 -12.470888 -21.496083 0.000000 0.000000 0.000000 0.000000 0.000000 0.000000 4.429852 1.307556 46.884751 3.083682 2.157446 0.122442 3.393680 -0.092377 -6.573950 0.000000 0.000000 0.000000 0.544536 4.284260 46.507538 3.975994 -3.309112 1.580495 -1.067995 -7.594130 -6.987673 0.000000 0.000000 0.000000
-41.990595 84.064926 361.012943 -4.072350 -1.127098 -46.576101 0.006208 -0.263614 46.388207 -0.197887 -0.031867 -0.200004 5.140737 3.130854 -1.126402 0.000000 0.000000 0.000000 4.664132 12.026532 -3.500549 15.962383 1.059336 -8.116572 6.477962 0.702756 -2.137044 16.010078 -4.374538 -6.377051 0.000000 0.000000 0.000000 0.000000 0.000000 0.000000 18.930187 -15.216103 7.045558 -74.829880 41.476353 103.091441 31.872137 -26.995292 -18.086775 0.089053 -10.743350 -23.626624 0.000000 0.000000 0.000000 0.000000 0.000000 0.000000 4.452579 1.330464 46.911996 3.098768 2.147168 0.127828 3.256477 -0.598253 -6.425494 0.000000 0.000000 0.000000 0.551580 4.307838 46.536838 3.984954 -3.277237 1.576790 -1.061526 -7.403189 -6.891160 0.000000 0.000000 0.000000
-41.981500 84.062521 360.994041 -4.085842 -1.127665 -46.656511 0.000358 -0.254949 46.468358 -0.202375 -0.035921 -0.201003 5.120458 3.072994 -1.079563 0.000000 0.000000 0.000000 4.338081 12.172035 -3.395565 16.168114 0.675785 -8.458497 6.562120 0.622608 -2.579171 15.561436 -4.305589 -5.876981 0.000000 0.000000 0.000000 0.000000 0.000000 0.000000 18.960721 -15.172225 7.089168 -74.901247 41.421602 103.130637 29.544048 -27.527800 -19.786246 -2.719792 -9.553786 -24.116219 0.000000 0.000000 0.000000 0.000000 0.000000 0.000000 4.464353 1.339392 46.992556 3.111175 2.117176 0.135663 3.165066 -0.716313 -6.348649 0.000000 0.000000 0.000000 0.543450 4.336410 46.619005 3.971901 -3.260772 1.568352 -1.111254 -7.107019 -6.698754 0.000000 0.000000 0.000000
-41.971606 84.061438 360.976812 -4.112226 -1.132408 -46.728903 -0.016281 -0.247862 46.539763 -0.209080 -0.038235 -0.203065 5.233779 3.017844 -1.056924 0.000000 0.000000 0.000000 3.863772 12.336420 -3.218275 16.371031 0.225053 -8.537152 6.957427 0.568507 -3.615330 14.494935 -3.751539 -4.312660 0.000000 0.000000 0.000000 0.000000 0.000000 0.000000 19.008309 -15.133354 7.126858 -74.940596 41.397070 103.167071 28.564059 -28.260640 -20.775611 -1.736238 -11.527182 -23.671082 0.000000 0.000000 0.000000 0.000000 0.000000 0.000000 4.489666 1.365100 47.063302 3.106546 2.056426 0.149795 3.096826 -0.625797 -6.308897 0.000000 0.000000 0.000000 0.542839 4.377095 46.692756 3.913632 -3.277654 1.548388 -0.771274 -7.176639 -6.910974 0.000000 0.000000 0.000000
-41.954896 84.053193 360.963128 -4.130410 -1.151300 -46.866270 -0.020961 -0.236923 46.676179 -0.202590 -0.050529 -0.203622 5.210549 3.080727 -1.083450 0.000000 0.000000 0.000000 3.231687 12.548286 -2.992084 16.794531 -0.205505 -8.770691 7.005551 0.399074 -4.219790 14.817034 -1.179568 -2.072489 0.000000 0.000000 0.000000 0.000000 0.000000 0.000000 19.020824 -15.082493 7.145345 -74.992017 41.363887 103.215417 26.916495 -27.923454 -21.659447 -2.361186 -12.619341 -24.187441 0.000000 0.000000 0.000000 0.000000 0.000000 0.000000 4.481679 1.383356 47.200885 3.123580 1.970082 0.167445 2.930727 -0.308249 -6.201423 0.000000 0.000000 0.000000 0.536131 4.428039 46.832237 3.849363 -3.255462 1.524508 0.030804 -6.124806 -6.962335 0.000000 0.000000 0.000000
